<?xml version="1.0" encoding="UTF-8"?>
<svg xmlns:svg="http://www.w3.org/2000/svg" xmlns="http://www.w3.org/2000/svg" enable-background="new 0 0 256 256" viewBox="0 0 256 256" x="0px" y="0px" id="SVGRoot" version="1.1"><path id="path6058" d="M 128 40.5 A 89.285713 87.5 0 0 0 38.714844 128 A 89.285713 87.5 0 0 0 128 215.5 A 89.285713 87.5 0 0 0 217.28516 128 A 89.285713 87.5 0 0 0 128 40.5 z M 104.9082 80.140625 C 106.4707 80.140625 107.81446 80.828133 108.93945 82.203125 C 110.06445 83.515642 110.62695 85.203136 110.62695 87.265625 C 110.62695 90.015647 110.12695 93.484348 109.12695 97.671875 C 109.04919 98.019202 108.91898 98.548341 108.82617 98.947266 C 116.86812 92.879022 123.41847 88.339963 128.32812 85.484375 C 134.51562 81.921868 139.32812 80.140625 142.76562 80.140625 C 144.32812 80.140625 145.67188 80.828133 146.79688 82.203125 C 147.92188 83.515642 148.48438 85.203136 148.48438 87.265625 C 148.48438 90.015647 147.98438 93.484348 146.98438 97.671875 C 146.90662 98.019202 146.7764 98.548341 146.68359 98.947266 C 154.72555 92.879022 161.2759 88.339963 166.18555 85.484375 C 172.37305 81.921868 177.18553 80.140625 180.62305 80.140625 C 182.18554 80.140625 183.52928 80.828133 184.6543 82.203125 C 185.77928 83.515642 186.3418 85.203136 186.3418 87.265625 C 186.3418 90.015647 185.84179 93.484348 184.8418 97.671875 C 183.90429 101.85937 181.87308 109.79687 178.74805 121.48438 C 173.31055 141.60938 170.5918 153.26566 170.5918 156.45312 C 170.5918 157.32812 170.84182 158.10938 171.3418 158.79688 C 171.9043 159.4219 172.5293 159.73437 173.2168 159.73438 C 175.0918 159.73438 180.09179 156.82813 188.2168 151.01562 L 189.3418 151.10938 L 191.4043 154.85938 L 191.0293 156.07812 C 186.65431 159.20311 181.43557 162.79687 175.37305 166.85938 C 169.31055 170.85935 164.9668 173.35936 162.3418 174.35938 C 159.7793 175.35936 157.5293 175.85938 155.5918 175.85938 C 153.1543 175.85938 151.3418 174.95309 150.1543 173.14062 C 148.96679 171.32811 148.37305 168.98435 148.37305 166.10938 C 148.37305 163.23436 148.7168 159.98436 149.4043 156.35938 C 150.15431 152.67189 151.7168 146.32813 154.0918 137.32812 C 159.34179 117.2656 161.9668 105.45309 161.9668 101.89062 C 161.9668 100.14059 161.24804 99.265625 159.81055 99.265625 C 157.53884 99.265625 152.4321 102.04185 144.55664 107.53125 C 143.56688 111.38602 142.37185 115.9446 140.89062 121.48438 C 135.45312 141.60938 133.41348 153.33883 132.73438 156.45312 C 132.10304 159.34843 131.57183 164.6604 129.69531 168.26758 C 128.46193 170.63848 126.77538 172.98329 124.48438 174.35938 C 122.50853 175.54619 119.67187 175.85937 117.73438 175.85938 C 115.29688 175.85938 113.48438 174.95309 112.29688 173.14062 C 111.10938 171.32811 110.51562 168.98435 110.51562 166.10938 C 110.51562 163.23436 110.85936 159.98436 111.54688 156.35938 C 112.29686 152.67189 113.85938 146.32812 116.23438 137.32812 C 121.48439 117.2656 124.10938 105.4531 124.10938 101.89062 C 124.10938 100.14059 123.39063 99.265625 121.95312 99.265625 C 119.68144 99.265625 114.57469 102.04185 106.69922 107.53125 C 105.70946 111.38602 104.51443 115.9446 103.0332 121.48438 C 97.595698 141.60938 95.556048 153.33883 94.876953 156.45312 C 94.24561 159.34843 93.716369 164.6604 91.839844 168.26758 C 90.606471 170.63848 88.917955 172.98329 86.626953 174.35938 C 84.651095 175.54619 81.814452 175.85937 79.876953 175.85938 C 77.439452 175.85938 75.626954 174.95309 74.439453 173.14062 C 73.251952 171.32811 72.658203 168.98435 72.658203 166.10938 C 72.658203 163.23436 73.001949 159.98436 73.689453 156.35938 C 74.439451 152.67189 76.001954 146.32812 78.376953 137.32812 C 83.626955 117.2656 86.251953 105.4531 86.251953 101.89062 C 86.251953 100.14059 85.533205 99.265625 84.095703 99.265625 C 81.720705 99.265625 76.283206 102.26562 67.783203 108.26562 L 66.470703 108.17188 L 64.595703 104.89062 L 64.783203 103.67188 C 75.783204 95.109354 84.345702 89.046844 90.470703 85.484375 C 96.658201 81.921868 101.4707 80.140625 104.9082 80.140625 z " style="fill:#000000;fill-opacity:1;stroke:none;stroke-width:0.99999994;stroke-opacity:1" /></svg>