<?xml version="1.0" encoding="UTF-8"?>
<svg version="1.1" id="SVGRoot" xmlns:svg="http://www.w3.org/2000/svg" xmlns="http://www.w3.org/2000/svg" x="0px" y="0px" viewBox="0 0 256 256" enable-background="new 0 0 256 256"><g id="layer1"><g transform="matrix(3.7795276,0,0,3.7795276,-202.71429,-299.16251)" id="g5081"><ellipse ry="23.151041" rx="23.623512" cy="113.02008" cx="87.501488" id="path6058" style="fill:#800000;fill-opacity:1;stroke:none;stroke-width:0.26458332;stroke-opacity:1" /><path d="m 81.238298,107.7739 -0.496094,-0.86816 0.04961,-0.32246 c 2.910417,-2.2655 5.175912,-3.86954 6.796485,-4.81211 1.637109,-0.94258 2.910416,-1.41387 3.819921,-1.41387 0.413412,0 0.768946,0.1819 1.066602,0.5457 0.297656,0.34727 0.446484,0.79375 0.446484,1.33945 0,0.72761 -0.132292,1.64538 -0.396875,2.75333 -0.248047,1.10794 -0.785481,3.20807 -1.612304,6.30039 -1.438672,5.32474 -1.978331,8.42815 -2.158008,9.25214 -0.167043,0.76605 -0.307327,2.17136 -0.803824,3.12576 -0.32633,0.6273 -0.77283,1.24784 -1.378991,1.61193 -0.522779,0.31401 -1.273307,0.39687 -1.785937,0.39687 -0.644922,0 -1.124479,-0.23978 -1.438672,-0.71933 -0.314193,-0.47956 -0.471289,-1.09968 -0.471289,-1.86035 0,-0.76068 0.09095,-1.62058 0.272852,-2.57969 0.198437,-0.97565 0.611849,-2.6541 1.240234,-5.03535 1.389063,-5.30821 2.083594,-8.4336 2.083594,-9.37617 0,-0.46303 -0.190169,-0.69454 -0.570508,-0.69454 -0.628385,0 -2.067057,0.79375 -4.316016,2.38125 z m 10.016372,0 -0.496093,-0.86816 0.04961,-0.32246 c 2.910417,-2.2655 5.175911,-3.86954 6.796484,-4.81211 1.637109,-0.94258 2.910419,-1.41387 3.819929,-1.41387 0.41341,0 0.76894,0.1819 1.0666,0.5457 0.29765,0.34727 0.44648,0.79375 0.44648,1.33945 0,0.72761 -0.13229,1.64538 -0.39687,2.75333 -0.24805,1.10794 -0.78548,3.20807 -1.61231,6.30039 -1.438673,5.32474 -2.158008,8.40879 -2.158008,9.25214 0,0.23151 0.06615,0.43822 0.198437,0.62012 0.148828,0.16537 0.314193,0.24805 0.496094,0.24805 0.496093,0 1.819017,-0.76895 3.968757,-2.30684 l 0.29765,0.0248 0.54571,0.99218 -0.0992,0.32247 c -1.15755,0.82682 -2.53835,1.77766 -4.14239,2.85253 -1.604036,1.05833 -2.75332,1.71979 -3.447851,1.98438 -0.677995,0.26458 -1.273307,0.39687 -1.785937,0.39687 -0.644922,0 -1.124479,-0.23978 -1.438672,-0.71933 -0.314193,-0.47956 -0.471289,-1.09968 -0.471289,-1.86035 0,-0.76068 0.09095,-1.62058 0.272851,-2.57969 0.198438,-0.97565 0.61185,-2.6541 1.240235,-5.03535 1.389062,-5.30821 2.083593,-8.4336 2.083593,-9.37617 0,-0.46303 -0.190169,-0.69454 -0.570507,-0.69454 -0.628386,0 -2.067058,0.79375 -4.316016,2.38125 z m -20.032737,0 -0.496094,-0.86816 0.04961,-0.32246 c 2.910417,-2.2655 5.175912,-3.86954 6.796485,-4.81211 1.637109,-0.94258 2.910416,-1.41387 3.819921,-1.41387 0.413412,0 0.768946,0.1819 1.066602,0.5457 0.297656,0.34727 0.446484,0.79375 0.446484,1.33945 0,0.72761 -0.132292,1.64538 -0.396875,2.75333 -0.248047,1.10794 -0.785481,3.20807 -1.612304,6.30039 -1.438672,5.32474 -1.978331,8.42815 -2.158008,9.25214 -0.167043,0.76605 -0.307327,2.17136 -0.803824,3.12576 -0.32633,0.6273 -0.77283,1.24784 -1.378991,1.61193 -0.522779,0.31401 -1.273307,0.39687 -1.785937,0.39687 -0.644922,0 -1.124479,-0.23978 -1.438672,-0.71933 -0.314193,-0.47956 -0.471289,-1.09968 -0.471289,-1.86035 0,-0.76068 0.09095,-1.62058 0.272852,-2.57969 0.198437,-0.97565 0.611849,-2.6541 1.240234,-5.03535 1.389063,-5.30821 2.083594,-8.4336 2.083594,-9.37617 0,-0.46303 -0.190169,-0.69454 -0.570508,-0.69454 -0.628385,0 -2.067057,0.79375 -4.316016,2.38125 z" style="fill:#ffffff;fill-opacity:1;stroke:none;stroke-width:0.26458332" id="path6046" /></g></g></svg>